<svg xmlns="http://www.w3.org/2000/svg" xmlns:xlink="http://www.w3.org/1999/xlink" version="1.1" x="0px" y="0px" viewBox="0 0 100 125" enable-background="new 0 0 100 100" xml:space="preserve"><g><defs><path id="a" d="M22.8,51.965c-0.104,0.859-0.883,1.473-1.742,1.37c-0.856-0.102-1.47-0.881-1.368-1.741    c0.102-0.855,0.882-1.47,1.737-1.369C22.285,50.327,22.901,51.107,22.8,51.965"/></defs><use xlink:href="#a" overflow="visible" fill-rule="evenodd" clip-rule="evenodd" fill="#000000"/><clipPath><use xlink:href="#a" overflow="visible"/></clipPath></g><path fill="#000000" d="M22.382,40.575c-0.398,0-0.776-0.236-0.938-0.629c-0.104-0.249-2.477-6.192,2.265-10.664  c0.407-0.384,1.049-0.365,1.434,0.042c0.384,0.408,0.365,1.049-0.042,1.433c-3.736,3.526-1.802,8.37-1.781,8.418  c0.213,0.519-0.034,1.11-0.552,1.324C22.642,40.551,22.511,40.575,22.382,40.575z"/><path fill="#000000" d="M93.361,58.177c-1.036-2.681-4.135-4.751-7.713-5.148c-4.137-0.46-8.556-3.942-9.93-5.104  c0.43-2.474,0.382-5.423-0.994-8.399c-2.528-5.464-8.704-9.179-18.359-11.04c-2.186-0.422-4.316-0.635-6.33-0.635  c-6.601,0-11.328,2.254-14.817,4.532c-0.569-2.413-2.31-3.319-3.959-3.319c-2.321,0-4.841,1.662-6.128,4.044  c-1.18,2.184-1.174,4.583-0.002,6.845c-0.665,0.479-1.479,1.026-2.381,1.634c-3.894,2.622-9.228,6.213-12.359,10.677  c-3.63,5.179-4.641,7.547-3.856,9.053c0.414,0.795,1.253,1.2,2.493,1.2c1.42,0,4.665-0.575,8.423-1.242  c4.865-0.862,10.381-1.84,13.335-1.84c0.937,0,2.006,0.069,3.169,0.184c-1.157,2.061-3.32,3.802-4.894,4.261  c-0.538,0.156-0.847,0.719-0.689,1.257c0.129,0.442,0.533,0.73,0.973,0.73c0.095,0,0.19-0.013,0.284-0.041  c2.201-0.642,5.126-3.021,6.451-5.964c1.38,0.174,2.839,0.382,4.337,0.597c3.995,0.575,8.126,1.169,11.423,1.169  c2.932,0,7.354-0.396,11.526-1.519c-1.458,2.473-4.057,3.386-4.105,3.402c-0.529,0.176-0.818,0.747-0.645,1.278  c0.14,0.427,0.537,0.697,0.962,0.697c0.105,0,0.213-0.016,0.317-0.051c0.19-0.062,4.598-1.564,6.035-6.135  c3.356-1.214,6.28-2.985,7.721-5.537c0.372-0.659,1.03-1.951,1.549-3.642c2.027,1.608,6.136,4.47,10.227,4.923  c2.801,0.312,5.287,1.9,6.046,3.864c0.424,1.097,0.229,2.117-0.582,3.033c-1.358,1.541-4.157,2.819-6.864,4.055  c-2.835,1.295-5.767,2.633-7.488,4.442c-0.386,0.404-0.371,1.047,0.035,1.432c0.196,0.188,0.447,0.281,0.698,0.281  c0.269,0,0.535-0.106,0.735-0.315c1.451-1.524,4.202-2.78,6.862-3.995c2.899-1.324,5.898-2.693,7.544-4.558  C93.721,61.796,94.059,59.983,93.361,58.177z M71.884,52.766c-2.812,4.977-13.788,6.832-20.047,6.832  c-3.151,0-7.209-0.583-11.133-1.147c-3.74-0.538-7.271-1.046-9.921-1.046c-3.132,0-8.741,0.994-13.689,1.871  c-3.51,0.624-6.827,1.211-8.068,1.211c-0.533,0-0.689-0.107-0.694-0.107c-0.008-0.019-0.169-0.433,0.59-1.971  c0.593-1.199,1.587-2.782,3.129-4.98c2.915-4.158,8.068-7.628,11.831-10.161c1.288-0.867,2.401-1.617,3.205-2.249  c0.413-0.326,0.51-0.913,0.222-1.353c-1.548-2.362-1.067-4.346-0.394-5.595c0.919-1.698,2.787-2.98,4.345-2.98  c1.755,0,2.123,1.677,2.123,3.083c0,0.379,0.212,0.727,0.55,0.9c0.336,0.174,0.743,0.146,1.052-0.076  c3.351-2.383,8.089-5.119,15.052-5.119c1.886,0,3.887,0.2,5.947,0.598c8.977,1.731,14.664,5.062,16.9,9.9  c1.138,2.459,1.23,5.118,0.77,7.539c-0.028,0.071-0.035,0.146-0.048,0.222C73.249,49.865,72.618,51.464,71.884,52.766z"/><path fill="#000000" d="M68.522,40.492c-0.263,0-0.527-0.103-0.726-0.305c-4.901-5.025-14.9-5.994-15.002-6.003  c-0.557-0.051-0.969-0.544-0.917-1.102c0.052-0.557,0.544-0.966,1.101-0.918c0.44,0.04,10.842,1.041,16.271,6.606  c0.391,0.401,0.383,1.042-0.019,1.433C69.032,40.396,68.778,40.492,68.522,40.492z"/><path fill="#000000" d="M69.791,49.827c-0.174,0-0.351-0.046-0.512-0.142c-0.483-0.284-0.644-0.906-0.359-1.389  c1.593-2.7,0.34-5.126,0.327-5.149c-0.263-0.495-0.075-1.108,0.42-1.371c0.494-0.263,1.107-0.074,1.37,0.42  c0.074,0.14,1.791,3.464-0.371,7.132C70.478,49.648,70.14,49.827,69.791,49.827z"/><text x="0" y="115" fill="#000000" font-size="5px" font-weight="bold" font-family="'Helvetica Neue', Helvetica, Arial-Unicode, Arial, Sans-serif">Created by Polina Flegontovna</text><text x="0" y="120" fill="#000000" font-size="5px" font-weight="bold" font-family="'Helvetica Neue', Helvetica, Arial-Unicode, Arial, Sans-serif">from the Noun Project</text></svg>