<svg xmlns="http://www.w3.org/2000/svg" xmlns:xlink="http://www.w3.org/1999/xlink" version="1.1" x="0px" y="0px" viewBox="0 0 45.395 458.667" enable-background="new 0 0 45.395 458.667" xml:space="preserve"><path d="M11.042,2.667c0,0,3-6,10,0s-2.595,156.256,3.405,160.256s-0.366,40.745,1.634,53.745s-4.039,55.999,4.961,57.999  s19,7,12,27s-8,31-8,39s0,27,0,32s-10.648,20-6.824,32s0.824,25,8.824,32s3.352,22-8.824,22s-29.176-1-28.176-10s7-25,7-42  s6-44,2-67s-13-48-4-63s2-33,3-53s-1-43,1-64S8.042,12.667,11.042,2.667z"></path></svg>